:SAMPLES-PER-SECOND 25
:FULLY-SPECIFIED
:DEGREES
42
root  -3.75705 39.0668 -65.9569 -4.80849 -6.58748 0.534417
RightUpLeg  4.56939 -1.399 3.48781
RightLeg  15.62 0.301193 0.216587
RightFoot  -18.7018 0.0348119 2.51062
RightToes  2.84633e-005 7.89722e-005 -0.000426369
Spine  5.72101 2.47454 1.65121
Spine1  12.2061 3.76012 -0.49131
HEad  15.2652 -3.73489 -7.54897
LeftShoulder1  -3.88251e-019 0 -3.92111e-022
LeftArm  -32.0508 -1.10212 -81.1301
LeftForeArm  29.4441 2.02531 1.70462
LeftHand  -0.72506 -4.05437 9.17771
RightShoulder  7.45443e-017 -2.42657e-020 1.96277e-018
RightArm  -23.6111 -18.978 69.5904
RightForeArm  29.1919 9.37605 9.04315
RightHand  -1.6014 9.69922 -12.6403
LeftUpLeg  -66.0545 0.0269938 8.96739
LeftLeg  66.5269 1.37178 4.20977
LeftFoot  -10.1615 0.0949665 -3.24484
LeftToes  3.91355e-005 3.11907e-005 -4.10385e-006
43
root  -3.4999 39.083 -65.0813 -4.70339 -6.97732 1.43542
RightUpLeg  5.83157 -2.3536 1.38858
RightLeg  15.4226 2.44189 0.878806
RightFoot  -19.0035 0.0779814 3.08673
RightToes  2.84633e-005 7.89722e-005 -0.000426369
Spine  6.00066 2.66049 1.75793
Spine1  12.7663 4.13445 -0.123404
HEad  15.084 -4.02419 -7.99934
LeftShoulder1  -3.88251e-019 0 -3.92111e-022
LeftArm  -32.3366 -0.672924 -80.8051
LeftForeArm  29.6813 2.01565 1.79194
LeftHand  -0.714865 -3.88444 9.2051
RightShoulder  7.45443e-017 -2.42657e-020 1.96277e-018
RightArm  -22.106 -17.0315 70.1413
RightForeArm  28.8097 9.70485 9.35176
RightHand  -1.55307 9.83313 -12.1635
LeftUpLeg  -66.5611 0.786427 7.76119
LeftLeg  67.034 0.703408 2.58418
LeftFoot  -7.49259 0.162006 -3.44363
LeftToes  3.91355e-005 3.11907e-005 -4.10385e-006
44
root  -3.23052 39.1069 -64.0838 -4.18195 -7.15104 1.95816
RightUpLeg  6.98774 -3.12937 -0.308595
RightLeg  15.0534 3.70777 1.29169
RightFoot  -19.1947 0.0855133 3.13726
RightToes  2.84633e-005 7.89722e-005 -0.000426369
Spine  6.05904 2.73738 1.91413
Spine1  12.8861 4.28075 0.272855
HEad  15.2141 -4.09857 -8.36617
LeftShoulder1  -3.88251e-019 0 -3.92111e-022
LeftArm  -32.5126 0.126236 -80.5398
LeftForeArm  29.5869 2.03149 1.52131
LeftHand  -0.620003 -4.00435 7.92982
RightShoulder  7.45443e-017 -2.42657e-020 1.96277e-018
RightArm  -21.6133 -14.823 70.9206
RightForeArm  30.3769 9.46457 9.26591
RightHand  -1.38045 9.50231 -11.0944
LeftUpLeg  -66.7869 1.34052 6.60579
LeftLeg  67.3016 0.313421 1.58781
LeftFoot  -5.94471 0.252178 -4.59162
LeftToes  3.91355e-005 3.11907e-005 -4.10385e-006
45
root  -2.93009 39.1429 -62.9578 -3.24954 -7.11729 2.23453
RightUpLeg  7.90969 -3.99179 -1.88783
RightLeg  14.7494 5.0894 1.80371
RightFoot  -18.7375 0.0993361 3.4932
RightToes  2.84633e-005 7.89722e-005 -0.000426369
Spine  5.91377 2.78326 2.09916
Spine1  12.5893 4.37256 0.716907
HEad  15.2856 -4.20518 -8.78759
LeftShoulder1  -3.88251e-019 0 -3.92111e-022
LeftArm  -32.7414 1.15006 -80.5332
LeftForeArm  29.2447 2.05857 1.17226
LeftHand  -0.571955 -4.15688 7.22935
RightShoulder  7.45443e-017 -2.42657e-020 1.96277e-018
RightArm  -20.8747 -12.9887 71.5104
RightForeArm  31.2584 9.65172 9.2862
RightHand  -1.36088 9.46757 -10.9687
LeftUpLeg  -66.7989 1.43343 5.47343
LeftLeg  67.672 -0.184863 0.271848
LeftFoot  -4.04529 0.36694 -5.36535
LeftToes  3.91355e-005 3.11907e-005 -4.10385e-006
46
root  -2.58809 39.1826 -61.7351 -2.11337 -7.38676 2.45886
RightUpLeg  8.36169 -4.69998 -3.48646
RightLeg  15.0868 7.45012 2.49159
RightFoot  -17.6414 0.144879 4.80335
RightToes  2.84633e-005 7.89722e-005 -0.000426369
Spine  5.72383 2.9599 2.25756
Spine1  12.1913 4.75125 1.11819
HEad  14.5103 -4.59437 -9.12107
LeftShoulder1  -3.88251e-019 0 -3.92111e-022
LeftArm  -32.9003 2.11009 -80.785
LeftForeArm  29.0045 2.08708 0.790378
LeftHand  -0.567874 -4.12184 7.20401
RightShoulder  7.45443e-017 -2.42657e-020 1.96277e-018
RightArm  -19.3647 -11.4713 71.8201
RightForeArm  29.8643 10.4234 9.47487
RightHand  -1.39324 9.87676 -10.9345
LeftUpLeg  -66.2853 1.48081 4.17348
LeftLeg  68.1301 -0.462891 -0.491259
LeftFoot  -2.1466 0.448612 -5.41726
LeftToes  3.91355e-005 3.11907e-005 -4.10385e-006
47
root  -2.20843 39.2732 -60.4448 -0.623577 -7.86579 2.80404
RightUpLeg  8.1882 -4.95028 -5.06719
RightLeg  15.7582 8.91465 2.78406
RightFoot  -15.8524 0.138225 6.22163
RightToes  2.84633e-005 7.89722e-005 -0.000426369
Spine  5.50854 3.19083 2.25851
Spine1  11.7477 5.24424 1.11133
HEad  12.9352 -5.18184 -9.32691
LeftShoulder1  -3.88251e-019 0 -3.92111e-022
LeftArm  -32.7758 2.90408 -80.9541
LeftForeArm  29.559 2.10092 0.407491
LeftHand  -0.552709 -4.13898 7.00797
RightShoulder  7.45443e-017 -2.42657e-020 1.96277e-018
RightArm  -17.6132 -10.0311 72.2784
RightForeArm  27.7173 11.2644 9.53778
RightHand  -1.33533 10.0994 -10.3563
LeftUpLeg  -65.5091 1.44509 2.36184
LeftLeg  68.6375 -0.175293 0.311824
LeftFoot  -2.7232 0.32442 -4.04603
LeftToes  3.91355e-005 3.11907e-005 -4.10385e-006
48
root  -1.78132 39.4746 -59.0182 1.38562 -8.05804 3.61817
RightUpLeg  7.9291 -4.97651 -7.0238
RightLeg  15.4275 9.85511 2.61928
RightFoot  -12.8175 0.0215764 8.24358
RightToes  2.84633e-005 7.89722e-005 -0.000426369
Spine  5.08223 3.30232 2.00318
Spine1  10.8926 5.48602 0.432946
HEad  11.2329 -5.79322 -9.54998
LeftShoulder1  -3.88251e-019 0 -3.92111e-022
LeftArm  -32.7163 3.82956 -80.879
LeftForeArm  30.9944 2.08415 0.197939
LeftHand  -0.542922 -4.28595 6.79283
RightShoulder  7.45443e-017 -2.42657e-020 1.96277e-018
RightArm  -15.7091 -8.95046 72.9408
RightForeArm  26.0861 11.9799 9.5552
RightHand  -1.29522 9.94095 -10.1577
LeftUpLeg  -65.1695 0.647773 -0.0322807
LeftLeg  69.5224 0.367076 1.94615
LeftFoot  -5.51777 0.0788207 -0.80684
LeftToes  3.91355e-005 3.11907e-005 -4.10385e-006
49
root  -1.32971 39.8324 -57.4134 3.60831 -7.97226 5.02016
RightUpLeg  7.89258 -5.45171 -9.54023
RightLeg  14.0508 12.0274 2.15355
RightFoot  -7.90524 -0.438221 12.6555
RightToes  2.84633e-005 7.89722e-005 -0.000426369
Spine  4.42467 3.36522 1.54458
Spine1  9.56945 5.63266 -0.725652
HEad  9.77174 -6.5915 -9.60794
LeftShoulder1  -3.88251e-019 0 -3.92111e-022
LeftArm  -33.0785 4.74508 -80.8297
LeftForeArm  31.8335 2.05721 0.286477
LeftHand  -0.532276 -4.30371 6.65409
RightShoulder  7.45443e-017 -2.42657e-020 1.96277e-018
RightArm  -12.9627 -8.79548 73.5237
RightForeArm  23.4313 13.1414 9.41983
RightHand  -1.31959 9.98307 -10.3125
LeftUpLeg  -64.9421 -0.873056 -2.72449
LeftLeg  70.3947 0.7958 3.38745
LeftFoot  -7.79661 -0.0178081 2.06108
LeftToes  3.91355e-005 3.11907e-005 -4.10385e-006
50
root  -0.927021 40.4257 -55.7739 5.69468 -7.83103 6.31302
RightUpLeg  7.13726 -6.06853 -11.5265
RightLeg  13.2475 11.4953 0.919669
RightFoot  0.832911 -1.86562 17.2603
RightToes  2.84633e-005 7.89722e-005 -0.000426369
Spine  3.78559 3.56179 1.05998
Spine1  8.25638 6.06863 -1.90364
HEad  8.75306 -7.92515 -9.09659
LeftShoulder1  -3.88251e-019 0 -3.92111e-022
LeftArm  -33.319 4.78258 -80.9467
LeftForeArm  30.7944 2.0527 0.674296
LeftHand  -0.506525 -4.25478 6.37546
RightShoulder  7.45443e-017 -2.42657e-020 1.96277e-018
RightArm  -10.2915 -9.37763 74.0703
RightForeArm  19.0389 14.7479 8.87134
RightHand  -1.29313 10.2996 -9.92426
LeftUpLeg  -63.6968 -2.17231 -5.20489
LeftLeg  69.9454 1.1352 4.33073
LeftFoot  -9.10421 -0.00244799 2.89667
LeftToes  3.91355e-005 3.11907e-005 -4.10385e-006
51
root  -0.611499 41.188 -54.2832 7.52288 -7.34526 6.66913
RightUpLeg  4.69914 -4.97176 -11.64
RightLeg  14.8382 7.07764 -0.298884
RightFoot  13.0412 -3.79522 17.8598
RightToes  2.84633e-005 7.89722e-005 -0.000426369
Spine  3.35575 3.75192 0.792342
Spine1  7.33923 6.50461 -2.57088
HEad  8.4803 -9.59253 -8.25734
LeftShoulder1  -3.88251e-019 0 -3.92111e-022
LeftArm  -32.8394 3.68425 -81.0528
LeftForeArm  29.2774 2.06668 1.01683
LeftHand  -0.508585 -4.33463 6.35258
RightShoulder  7.45443e-017 -2.42657e-020 1.96277e-018
RightArm  -9.01845 -9.66534 74.5033
RightForeArm  14.1629 15.9275 8.35803
RightHand  -1.22475 10.3673 -9.38479
LeftUpLeg  -61.4274 -3.00618 -6.79798
LeftLeg  68.18 1.43509 4.75438
LeftFoot  -10.7258 0.04574 3.49215
LeftToes  3.91355e-005 3.11907e-005 -4.10385e-006
52
root  -0.389203 41.9362 -53.0195 8.779 -6.3153 6.3744
RightUpLeg  0.650529 0.580411 -10.3416
RightLeg  20.2821 5.06216 1.10241
RightFoot  22.6893 -4.66956 15.698
RightToes  2.84633e-005 7.89722e-005 -0.000426369
Spine  3.25837 3.61588 0.731038
Spine1  7.07572 6.32392 -2.572
HEad  8.74922 -10.7699 -7.90881
LeftShoulder1  -3.88251e-019 0 -3.92111e-022
LeftArm  -31.9281 2.0466 -81.0549
LeftForeArm  29.678 2.09403 0.63974
LeftHand  -0.556271 -4.35891 6.90523
RightShoulder  7.45443e-017 -2.42657e-020 1.96277e-018
RightArm  -8.06313 -9.13106 74.4356
RightForeArm  9.09219 16.6871 8.118
RightHand  -1.25391 10.4996 -9.52165
LeftUpLeg  -58.7713 -3.9005 -7.4329
LeftLeg  66.1681 1.64375 4.80827
LeftFoot  -12.3719 0.117803 4.85649
LeftToes  3.91355e-005 3.11907e-005 -4.10385e-006
53
root  -0.256641 42.6597 -51.9236 9.14803 -5.21126 6.14561
RightUpLeg  -4.94804 4.23015 -9.31581
RightLeg  30.9805 10.1382 6.52321
RightFoot  25.6122 -4.1248 12.8364
RightToes  2.84633e-005 7.89722e-005 -0.000426369
Spine  3.54125 3.1102 0.586285
Spine1  7.53599 5.49291 -2.17052
HEad  9.07997 -10.9034 -8.34666
LeftShoulder1  -3.88251e-019 0 -3.92111e-022
LeftArm  -31.0462 0.234807 -80.9183
LeftForeArm  31.9513 2.16555 -0.487318
LeftHand  -0.623422 -4.23325 7.79611
RightShoulder  7.45443e-017 -2.42657e-020 1.96277e-018
RightArm  -6.26461 -8.48087 74.153
RightForeArm  3.52168 17.8985 7.61258
RightHand  -1.41917 11.3818 -10.1832
LeftUpLeg  -55.479 -4.85494 -7.72839
LeftLeg  63.9296 1.86505 4.81998
LeftFoot  -13.2843 0.177893 5.80161
LeftToes  3.91355e-005 3.11907e-005 -4.10385e-006
54
root  -0.184244 43.4753 -50.8843 8.83723 -4.30202 6.13364
RightUpLeg  -11.9202 4.57577 -8.76005
RightLeg  45.5216 10.4805 10.8803
RightFoot  23.486 -2.74429 9.27356
RightToes  2.84633e-005 7.89722e-005 -0.000426369
Spine  3.99249 2.38203 0.190433
Spine1  8.28984 4.26604 -1.76064
HEad  9.64391 -10.1896 -8.97418
LeftShoulder1  -3.88251e-019 0 -3.92111e-022
LeftArm  -30.226 -1.67008 -80.5658
LeftForeArm  33.6687 1.3035 -1.64325
LeftHand  -0.704336 -4.21253 8.78441
RightShoulder  7.45443e-017 -2.42657e-020 1.96277e-018
RightArm  -4.53149 -8.642 74.3164
RightForeArm  -2.26967 19.6227 6.76695
RightHand  -1.62637 12.5057 -10.9099
LeftUpLeg  -51.0929 -5.73914 -8.07998
LeftLeg  60.7224 2.23222 4.90602
LeftFoot  -13.784 0.21403 6.1433
LeftToes  3.91355e-005 3.11907e-005 -4.10385e-006
